<svg width="61" height="19" viewBox="0 0 61 19" fill="none" xmlns="http://www.w3.org/2000/svg">
<g clip-path="url(#clip0_394_14)">
<path d="M13.5 3H4.5C3.67157 3 3 3.67157 3 4.5V13.5C3 14.3284 3.67157 15 4.5 15H13.5C14.3284 15 15 14.3284 15 13.5V4.5C15 3.67157 14.3284 3 13.5 3Z" stroke="black" stroke-width="2" stroke-linecap="round" stroke-linejoin="round"/>
<path d="M11.25 6.75H6.75V11.25H11.25V6.75Z" stroke="black" stroke-width="2" stroke-linecap="round" stroke-linejoin="round"/>
<path d="M6.75 0.75V3" stroke="black" stroke-width="2" stroke-linecap="round" stroke-linejoin="round"/>
<path d="M11.25 0.75V3" stroke="black" stroke-width="2" stroke-linecap="round" stroke-linejoin="round"/>
<path d="M6.75 15V17.25" stroke="black" stroke-width="2" stroke-linecap="round" stroke-linejoin="round"/>
<path d="M11.25 15V17.25" stroke="black" stroke-width="2" stroke-linecap="round" stroke-linejoin="round"/>
<path d="M15 6.75H17.25" stroke="black" stroke-width="2" stroke-linecap="round" stroke-linejoin="round"/>
<path d="M15 10.5H17.25" stroke="black" stroke-width="2" stroke-linecap="round" stroke-linejoin="round"/>
<path d="M0.75 6.75H3" stroke="black" stroke-width="2" stroke-linecap="round" stroke-linejoin="round"/>
<path d="M0.75 10.5H3" stroke="black" stroke-width="2" stroke-linecap="round" stroke-linejoin="round"/>
</g>
<path d="M22.032 4.4H20.192V2.8H25.632V4.4H23.792V14H22.032V4.4ZM26.4841 2.8H28.2441V14H26.4841V2.8ZM32.0423 14.16C31.1996 14.16 30.5543 13.92 30.1063 13.44C29.6689 12.96 29.4503 12.2827 29.4503 11.408V5.392C29.4503 4.51733 29.6689 3.84 30.1063 3.36C30.5543 2.88 31.1996 2.64 32.0423 2.64C32.8849 2.64 33.5249 2.88 33.9623 3.36C34.4103 3.84 34.6343 4.51733 34.6343 5.392V6.576H32.9703V5.28C32.9703 4.58667 32.6769 4.24 32.0903 4.24C31.5036 4.24 31.2103 4.58667 31.2103 5.28V11.536C31.2103 12.2187 31.5036 12.56 32.0903 12.56C32.6769 12.56 32.9703 12.2187 32.9703 11.536V9.824H34.6343V11.408C34.6343 12.2827 34.4103 12.96 33.9623 13.44C33.5249 13.92 32.8849 14.16 32.0423 14.16ZM37.0633 4.4H35.2233V2.8H40.6633V4.4H38.8233V14H37.0633V4.4ZM41.5154 2.8H46.3154V4.4H43.2754V7.36H45.6914V8.96H43.2754V12.4H46.3154V14H41.5154V2.8ZM49.8079 14.16C48.9652 14.16 48.3199 13.92 47.8719 13.44C47.4345 12.96 47.2159 12.2827 47.2159 11.408V5.392C47.2159 4.51733 47.4345 3.84 47.8719 3.36C48.3199 2.88 48.9652 2.64 49.8079 2.64C50.6505 2.64 51.2905 2.88 51.7279 3.36C52.1759 3.84 52.3999 4.51733 52.3999 5.392V6.576H50.7359V5.28C50.7359 4.58667 50.4425 4.24 49.8559 4.24C49.2692 4.24 48.9759 4.58667 48.9759 5.28V11.536C48.9759 12.2187 49.2692 12.56 49.8559 12.56C50.4425 12.56 50.7359 12.2187 50.7359 11.536V9.824H52.3999V11.408C52.3999 12.2827 52.1759 12.96 51.7279 13.44C51.2905 13.92 50.6505 14.16 49.8079 14.16ZM53.4529 2.8H55.2129V7.36H57.1009V2.8H58.8609V14H57.1009V8.96H55.2129V14H53.4529V2.8Z" fill="black"/>
<defs>
<clipPath id="clip0_394_14">
<rect width="18" height="18" fill="white"/>
</clipPath>
</defs>
</svg>
